<svg version="1.1" id="Layer_1" xmlns="http://www.w3.org/2000/svg" xmlns:xlink="http://www.w3.org/1999/xlink" x="0px" y="0px"
	 width="100%" viewBox="0 0 448 448" enable-background="new 0 0 448 448" xml:space="preserve">
<path fill="#000000" opacity="1.000000" stroke="none" 
	d="
M94.337723,206.281342 
	C116.630676,190.736877 140.002548,187.158295 164.964294,198.216782 
	C168.385773,193.347275 171.539581,188.668915 174.883240,184.130402 
	C198.790146,151.680298 244.816818,145.918411 278.562927,169.092651 
	C295.909332,181.004822 307.407288,196.961227 311.392853,217.888123 
	C312.501495,223.709274 316.952515,221.767487 320.126038,221.418259 
	C328.603760,220.485382 336.761841,221.459763 344.641083,224.479553 
	C369.276550,233.921295 383.453217,251.688965 384.964417,278.153717 
	C386.596222,306.730103 364.759644,341.468872 327.484070,341.426880 
	C292.843994,341.387848 258.203644,341.744873 223.563171,341.842682 
	C192.919067,341.929169 162.274414,341.971619 131.630402,341.888367 
	C117.003761,341.848633 103.006889,338.895020 91.178276,329.819397 
	C68.044472,312.069672 58.525269,288.406464 62.450081,259.583588 
	C65.453590,237.526596 76.568924,220.059296 94.337723,206.281342 
M235.784149,246.226913 
	C229.795807,249.703644 225.859604,254.938934 222.916779,261.074127 
	C212.986115,281.777435 225.946457,307.531372 247.661316,308.689331 
	C265.418854,309.636200 283.274353,309.206238 301.071442,308.772430 
	C311.238068,308.524628 319.742157,300.616455 322.339417,290.532501 
	C324.956085,280.373199 321.285095,270.051239 312.934265,264.087372 
	C304.191711,257.843750 294.890411,257.973694 285.549683,264.391113 
	C284.264008,265.274414 283.334381,267.015686 280.994965,266.425568 
	C279.827972,263.183167 278.979218,259.595581 277.322205,256.431274 
	C269.679932,241.837280 253.061951,237.631470 235.784149,246.226913 
M128.819519,240.299545 
	C123.888992,253.051712 122.981003,266.175995 125.425819,279.542114 
	C127.950363,293.344086 134.387726,305.228210 143.830002,315.489197 
	C146.273331,318.144379 149.354675,319.533630 152.536606,316.432831 
	C155.569824,313.476959 154.781189,310.520844 152.205032,307.662872 
	C150.425064,305.688171 148.504684,303.786713 147.037567,301.591553 
	C131.203323,277.900024 131.481003,246.740280 151.229919,226.041290 
	C155.209641,221.870148 155.353973,218.253204 152.131500,215.081070 
	C149.433838,212.425552 146.548309,213.005249 142.448364,217.501740 
	C136.558334,223.961426 132.119980,231.352066 128.819519,240.299545 
M163.480560,283.934601 
	C159.730042,278.995422 157.925766,273.330017 157.733826,267.223358 
	C157.451324,258.235504 159.857681,250.186447 166.453827,243.642227 
	C169.275162,240.843124 170.022263,237.235245 166.972565,234.356049 
	C164.117645,231.660690 160.774689,232.870636 157.944611,235.146713 
	C157.305603,235.660614 156.761108,236.318832 156.264923,236.979568 
	C147.380875,248.809647 143.951767,261.949371 147.434113,276.462311 
	C149.275604,284.136810 152.693192,291.195251 158.397980,296.851898 
	C160.947159,299.379547 164.102844,299.892700 166.876083,297.306335 
	C169.554916,294.807983 169.598587,291.740143 167.372543,288.779816 
	C166.274399,287.319458 165.063217,285.944061 163.480560,283.934601 
M179.908920,227.605087 
	C177.198654,234.782196 178.098160,238.837265 183.228363,242.569672 
	C187.444031,245.636703 192.817245,245.727448 196.641357,242.627090 
	C200.069366,239.847855 202.250290,236.159592 201.335434,231.752716 
	C200.287933,226.706985 196.951920,223.185974 191.789917,221.930618 
	C186.779678,220.712128 183.173264,223.121124 179.908920,227.605087 
M200.394272,294.291809 
	C197.873489,288.009674 192.831543,284.548492 187.648270,285.541992 
	C182.089340,286.607452 178.166901,291.487579 178.176880,297.325928 
	C178.186661,303.057007 181.712982,307.056763 187.784241,308.223114 
	C195.066101,309.622009 200.772614,303.741150 200.394272,294.291809 
z"/>
<path fill="#000000" opacity="1.000000" stroke="none" 
	d="
M249.402664,53.814003 
	C248.822739,53.694424 248.660812,53.655373 248.498779,53.616730 
	C237.972717,51.106430 235.647644,48.908913 237.017197,42.764980 
	C239.547791,31.412527 246.109146,26.225000 255.812943,28.045448 
	C271.562195,31.000040 286.992249,35.189976 301.626740,41.741886 
	C362.244507,68.880638 402.619507,113.662430 419.735687,178.398438 
	C424.092621,194.877106 425.156586,211.845535 425.906586,228.799057 
	C426.224762,235.991196 421.901154,241.536530 414.890533,243.641113 
	C407.347198,245.905624 402.015076,242.087845 402.065460,234.251648 
	C402.204620,212.625916 399.207550,191.446381 393.259949,170.672073 
	C391.086151,163.079300 386.574280,156.570160 383.344025,149.466141 
	C378.451263,138.706024 372.339600,128.720551 364.986938,119.436203 
	C352.393555,103.534248 338.792938,88.987587 320.183716,79.740623 
	C305.864014,72.625122 291.751801,65.157692 276.535034,60.054115 
	C267.821198,57.131565 258.911530,55.140404 249.402664,53.814003 
z"/>
<path fill="#000000" opacity="1.000000" stroke="none" 
	d="
M87.395386,121.370590 
	C68.883667,146.621613 55.904545,173.833511 52.130173,204.904816 
	C51.189560,212.648132 47.768635,218.420013 40.098949,221.137604 
	C35.997147,222.590988 32.155052,222.094574 28.780058,219.424072 
	C25.636887,216.936981 26.654093,213.635818 27.099163,210.238647 
	C29.728525,190.169006 34.216541,170.602127 42.341698,151.994415 
	C54.304913,124.597000 71.551910,100.972206 93.322014,80.530937 
	C123.475220,52.218273 159.204651,35.363224 199.720734,28.122379 
	C206.989822,26.823284 213.301392,29.903091 215.003540,35.952545 
	C216.633286,41.744713 212.989319,47.358330 205.991425,49.972439 
	C197.220642,53.248825 187.866318,54.209812 178.947861,56.976719 
	C141.599335,68.563927 111.701088,90.661469 87.395386,121.370590 
z"/>
<path fill="#000000" opacity="1.000000" stroke="none" 
	d="
M306.368286,378.324585 
	C311.524200,375.200348 316.351990,372.241394 321.222229,369.353973 
	C327.775848,365.468506 334.183289,366.549957 337.901703,372.106506 
	C341.771057,377.888550 340.422180,384.573425 334.189087,389.137115 
	C316.766541,401.893372 297.290375,410.417694 276.565674,415.994995 
	C248.014938,423.678314 219.105042,425.252136 190.034927,419.175751 
	C164.812317,413.903595 141.517578,403.856110 120.011665,389.700623 
	C112.211647,384.566559 110.848999,379.309509 115.175926,372.585815 
	C118.940750,366.735596 127.056526,365.424103 133.738358,370.040558 
	C156.988419,386.103973 182.758636,395.630798 210.731354,398.334503 
	C244.401260,401.588837 276.353516,395.087067 306.368286,378.324585 
z"/>
<path fill="#000000" opacity="1.000000" stroke="none" 
	d="
M244.190399,113.930984 
	C232.153534,111.008438 220.404922,110.688210 208.537521,111.763496 
	C203.554962,112.214966 197.725113,112.664146 194.635117,108.301262 
	C191.347885,103.659882 195.244385,98.805206 197.190399,94.354172 
	C198.930038,90.375160 202.454987,88.197037 206.612610,87.781631 
	C260.208038,82.426720 304.316650,100.486313 338.962555,141.694611 
	C348.069824,152.526871 354.733093,164.769089 359.493347,178.047882 
	C362.032806,185.131729 360.604706,190.246735 355.263550,194.592117 
	C349.330872,199.418793 342.617188,198.261490 338.961487,191.517731 
	C333.419403,181.294220 328.409393,170.825409 322.370728,160.816803 
	C316.928436,151.796677 309.660156,145.003464 301.715271,138.773132 
	C284.893951,125.582001 265.412933,118.195274 244.190399,113.930984 
z"/>
<path fill="#000000" opacity="1.000000" stroke="none" 
	d="
M121.035721,135.040710 
	C130.800705,123.976395 141.567352,114.608620 153.694153,106.827629 
	C160.391281,102.530525 167.294327,103.348534 171.536346,108.863167 
	C175.616913,114.167900 174.486267,121.193977 168.221878,125.274834 
	C153.408630,134.924744 140.837036,146.892960 129.966248,160.756302 
	C126.800819,164.793121 122.896248,167.792160 117.619003,168.565491 
	C113.558197,169.160553 109.421402,169.481522 106.635445,165.773773 
	C103.619186,161.759521 104.815117,157.544769 107.032944,153.577621 
	C110.785606,146.865021 115.324104,140.727631 121.035721,135.040710 
z"/>
</svg>