<svg version="1.1" id="Layer_1" xmlns="http://www.w3.org/2000/svg" xmlns:xlink="http://www.w3.org/1999/xlink" x="0px" y="0px"
	 width="100%" viewBox="0 0 1024 1024" enable-background="new 0 0 1024 1024" xml:space="preserve">
<path fill="#000000" opacity="1.000000" stroke="none" 
	d="
M580.000000,1025.000000 
	C388.166656,1025.000000 196.833328,1024.987305 5.500052,1025.093750 
	C1.750733,1025.095825 0.905801,1024.249146 0.906913,1020.500000 
	C1.007246,682.166687 1.007246,343.833344 0.906913,5.500028 
	C0.905801,1.750903 1.750902,0.905800 5.500028,0.906912 
	C343.833344,1.007255 682.166687,1.007255 1020.500000,0.906912 
	C1024.249146,0.905800 1025.094360,1.750902 1025.093262,5.500027 
	C1024.992920,343.833344 1024.992798,682.166687 1025.093140,1020.500000 
	C1025.094238,1024.249146 1024.249390,1025.096924 1020.499939,1025.094116 
	C873.833313,1024.983398 727.166687,1025.000000 580.000000,1025.000000 
z"/>
<path fill="#FFFFFF" opacity="1.000000" stroke="none" 
	d="
M322.752930,439.000061 
	C338.130280,440.934845 352.905029,443.427643 366.988678,448.963348 
	C367.282104,449.078674 367.691498,448.909882 367.976318,449.034546 
	C371.151428,450.424866 375.044006,453.601288 377.480896,452.349365 
	C380.722229,450.684174 382.742371,446.402832 384.964325,443.032593 
	C396.525269,425.496979 409.015472,408.683777 424.857361,394.759979 
	C439.136993,382.209351 455.483521,372.805817 473.239563,366.082245 
	C487.615784,360.638489 502.486145,357.353271 517.903015,355.856262 
	C548.561890,352.879120 577.803894,357.580933 606.089966,369.517548 
	C623.036377,376.668884 638.261780,386.433929 652.547241,397.941040 
	C671.069336,412.860901 685.897705,430.674316 697.020630,451.699463 
	C704.823669,466.449280 709.994446,482.031403 712.988953,498.382751 
	C714.226440,505.140045 719.852905,509.377350 726.146667,507.947174 
	C737.506531,505.365723 748.859375,505.843689 760.401245,506.835175 
	C778.503479,508.390228 794.782715,515.092896 810.514587,523.292480 
	C824.272034,530.463135 836.900452,539.510803 847.427734,551.014893 
	C863.913025,569.029846 874.144470,590.392212 878.836548,614.232117 
	C880.720764,623.805908 881.990906,633.717346 881.791138,643.439148 
	C881.383301,663.290283 877.278015,682.450562 869.156921,700.825928 
	C861.709839,717.676514 851.662292,732.665588 838.761780,745.525879 
	C820.730408,763.500916 798.883179,775.065491 773.812500,779.830017 
	C765.984680,781.317627 757.939392,782.073181 749.847961,782.057556 
	C693.348389,781.948730 636.834656,781.200867 580.351807,782.178894 
	C484.761871,783.833984 389.177063,782.617126 293.591766,782.790588 
	C273.005005,782.827942 252.800873,778.625366 233.718826,770.036926 
	C218.412018,763.147644 205.403625,753.198181 193.249725,741.823242 
	C178.211258,727.748657 165.663254,711.838440 156.754852,693.243225 
	C149.549835,678.203613 144.825470,662.399048 142.926331,645.742859 
	C141.958160,637.251587 140.748550,628.782410 141.036377,620.234436 
	C142.198135,585.730652 149.770889,553.124512 168.660034,523.566345 
	C177.908310,509.094391 188.610596,495.920990 201.215927,484.470306 
	C220.776215,466.701843 243.233063,453.698242 268.588684,445.700623 
	C286.138519,440.165100 304.023834,438.363220 322.752930,439.000061 
z"/>
<path fill="#FFFFFF" opacity="1.000000" stroke="none" 
	d="
M602.769165,130.017471 
	C586.420410,126.639626 570.039673,125.456139 554.583252,119.969566 
	C548.174805,117.694771 542.332581,114.577934 541.377441,106.799408 
	C540.878967,102.739510 541.958801,98.781883 543.058167,94.960838 
	C546.532166,82.887306 551.829895,72.104279 564.072083,66.351830 
	C570.475586,63.342873 577.359009,63.125748 583.841797,64.219910 
	C598.431580,66.682335 612.855103,70.094406 627.192566,73.890724 
	C646.605164,79.030838 665.650085,85.193718 684.105774,93.055603 
	C716.286743,106.764259 746.953796,123.336517 775.874268,143.032181 
	C790.642822,153.090042 804.799316,163.952713 818.353394,175.657730 
	C828.629211,184.531631 838.475708,193.803284 847.950378,203.487518 
	C863.627319,219.511383 877.788574,236.771606 890.734497,255.104355 
	C904.141968,274.090546 915.987671,293.968018 926.250122,314.768585 
	C942.847351,348.408844 955.232178,383.646149 963.807251,420.116180 
	C967.552124,436.043579 969.773865,452.327637 971.160645,468.727692 
	C972.337341,482.642242 973.460999,496.532776 974.218384,510.481628 
	C974.673584,518.864563 976.137268,527.305054 973.703613,535.375366 
	C969.645203,548.833069 959.770874,555.912842 946.244202,559.154968 
	C934.511658,561.966980 923.364136,556.363403 920.443787,544.945679 
	C919.301392,540.479309 919.569519,535.800781 919.246826,531.286865 
	C918.410095,519.583557 919.152771,507.804810 918.094055,496.048096 
	C916.865540,482.406189 915.187012,468.854919 913.268372,455.289856 
	C910.660950,436.855377 906.399170,418.830139 901.980103,400.810730 
	C898.164795,385.253174 891.542542,370.889648 883.640564,356.986237 
	C879.128113,349.046692 875.840149,340.421967 871.658813,332.281433 
	C860.721497,310.988129 847.847107,290.974640 832.888916,272.211334 
	C818.900330,254.664276 804.287415,237.711090 787.829651,222.496277 
	C774.131042,209.832443 759.342041,198.472229 742.909302,189.392105 
	C726.280273,180.203461 709.177490,171.950943 692.098816,163.675125 
	C670.750427,153.330322 649.107117,143.596298 626.315186,136.736328 
	C618.634338,134.424530 610.908325,132.262909 602.769165,130.017471 
z"/>
<path fill="#FFFFFF" opacity="1.000000" stroke="none" 
	d="
M221.759796,254.738403 
	C209.208694,268.276825 198.127045,282.513947 188.063721,297.558472 
	C174.716217,317.512878 162.594879,338.179932 152.554489,359.992096 
	C140.783112,385.564789 131.549255,411.961823 125.772270,439.643311 
	C122.832069,453.731842 122.377174,468.285278 117.903465,482.011383 
	C112.754883,497.808167 100.988174,506.387909 85.058754,508.817719 
	C76.930069,510.057709 64.176811,505.568939 61.374680,495.019226 
	C60.194176,490.574738 61.574421,486.435303 62.222881,482.407532 
	C64.356438,469.155396 66.196938,455.853149 68.843094,442.664886 
	C72.456200,424.657379 76.508881,406.809418 81.975945,389.266724 
	C89.876297,363.916046 100.051949,339.494873 112.532433,316.112213 
	C126.220284,290.467560 142.174896,266.278107 160.019043,243.241257 
	C177.695480,220.420959 197.846115,199.992676 218.598755,180.151794 
	C233.653625,165.758347 250.258911,153.081253 267.408142,141.207779 
	C288.086609,126.890816 309.836365,114.406532 332.645020,103.809311 
	C350.091095,95.703629 367.990997,88.824432 386.276398,82.731483 
	C406.762939,75.905067 427.634308,70.782829 448.666534,66.254456 
	C457.777405,64.292824 467.098511,62.319180 476.529144,65.925720 
	C484.648682,69.030853 491.319305,74.054893 492.719696,82.540375 
	C494.391418,92.670097 493.202972,102.386612 483.338776,109.505013 
	C473.547516,116.570808 462.351593,119.223007 451.196869,121.842575 
	C431.168243,126.546066 411.054474,130.780167 391.701538,137.969925 
	C366.792511,147.223785 342.946777,158.609680 320.126404,172.260498 
	C306.390747,180.476974 293.361755,189.675858 280.561707,199.205124 
	C273.623749,204.370224 267.209534,210.246689 260.636261,215.892151 
	C249.288635,225.638077 239.030792,236.518188 228.466736,247.076019 
	C226.155533,249.385880 224.154083,252.005661 221.759796,254.738403 
z"/>
<path fill="#FFFFFF" opacity="1.000000" stroke="none" 
	d="
M374.627258,883.242065 
	C395.693817,892.750732 417.297821,899.273804 439.485870,904.041321 
	C455.235626,907.425415 471.083679,909.775757 487.156494,911.151306 
	C502.325287,912.449585 517.510742,913.773193 532.661926,912.833801 
	C551.499512,911.665649 570.274292,909.910950 588.925842,906.243591 
	C616.978760,900.727722 643.843384,892.087585 669.983093,880.631775 
	C690.844421,871.489380 710.139160,859.653687 729.537842,847.937683 
	C736.620605,843.659973 743.656799,840.253601 752.405823,839.755676 
	C765.747314,838.996582 775.535400,850.042358 777.982483,860.715027 
	C780.682800,872.491821 775.596680,884.184998 764.523621,891.834717 
	C745.292908,905.120056 725.296021,917.114990 704.080627,926.963928 
	C677.971313,939.084778 650.811890,948.178345 622.861145,955.068115 
	C605.892822,959.250793 588.735046,962.458130 571.469055,964.768982 
	C561.759094,966.068604 551.837402,966.528931 542.020081,967.275330 
	C530.063721,968.184265 518.155640,968.015869 506.250214,967.874084 
	C491.687439,967.700562 477.208008,966.087830 462.733307,964.149780 
	C435.150238,960.456604 408.321991,953.922913 381.992004,945.048279 
	C357.434357,936.771057 333.917419,926.125549 311.102203,913.941284 
	C298.053253,906.972656 285.364136,899.325378 273.130920,890.980957 
	C266.923340,886.746765 261.222229,881.904175 259.026611,874.281067 
	C256.288696,864.775208 260.029846,856.885315 265.800995,849.754333 
	C276.277374,836.809631 293.610596,837.439392 306.283630,845.908325 
	C324.654877,858.185181 343.720245,869.191772 363.574097,878.845032 
	C367.012268,880.516846 370.711792,881.651062 374.627258,883.242065 
z"/>
<path fill="#FFFFFF" opacity="1.000000" stroke="none" 
	d="
M823.007812,407.081848 
	C826.646912,417.243835 827.911316,426.889709 822.162964,436.390991 
	C816.884949,445.114746 809.351624,450.918884 799.425842,452.885986 
	C789.808899,454.791809 780.662842,449.228149 774.997253,438.621826 
	C766.892212,423.448730 759.062195,408.128815 750.975525,392.945740 
	C739.559692,371.512177 727.083435,350.816101 708.806335,334.308105 
	C694.681580,321.550476 679.721558,309.817627 663.334290,300.160431 
	C644.637756,289.142334 624.849487,280.280975 604.155762,273.666931 
	C584.215881,267.293793 563.841980,262.680420 543.241394,258.859711 
	C524.391724,255.363708 505.432587,255.643600 486.512360,256.304382 
	C480.441559,256.516418 474.111603,257.216736 467.986786,257.656952 
	C459.590057,258.260437 451.041229,256.421967 445.301544,248.838928 
	C441.925140,244.378250 441.665741,238.936890 443.227997,234.288498 
	C446.183197,225.495255 449.985596,216.924393 455.933990,209.544464 
	C460.189606,204.264664 466.029297,201.666824 472.379120,201.217636 
	C477.128876,200.881622 481.855103,200.240219 486.606110,199.912308 
	C497.851318,199.136185 509.097290,198.754868 520.354126,199.031891 
	C535.757202,199.410965 551.058533,200.834564 566.357239,202.862946 
	C592.533936,206.333603 617.821045,213.098770 642.086670,223.182404 
	C665.301453,232.829346 687.259705,244.982224 707.596802,259.977631 
	C721.193604,270.003143 733.903198,280.950226 746.212891,292.520813 
	C766.300293,311.402161 784.114380,332.131683 798.651978,355.476288 
	C808.659607,371.546570 816.450317,388.850525 823.007812,407.081848 
z"/>
<path fill="#FFFFFF" opacity="1.000000" stroke="none" 
	d="
M360.796600,305.705536 
	C346.796936,317.082245 333.787445,329.012115 321.681152,341.884827 
	C312.165771,352.002563 303.735748,363.081879 294.602203,373.519409 
	C288.062683,380.992645 279.387939,386.106537 269.053040,386.911163 
	C264.607574,387.257233 260.296906,388.016907 255.558289,387.258972 
	C243.691101,385.360840 238.514847,371.779694 240.419083,363.952881 
	C243.351654,351.899506 250.720276,342.287018 257.390808,332.346527 
	C261.466705,326.272583 266.315948,320.640533 271.328552,315.288269 
	C281.871460,304.030975 292.308319,292.612244 303.596497,282.129639 
	C320.246216,266.668152 337.715424,251.987915 358.080078,241.582932 
	C377.383942,231.719940 400.805511,245.545959 398.947998,268.148560 
	C398.358490,275.322266 394.586884,281.149414 388.996033,285.390930 
	C379.864777,292.318329 370.381134,298.781189 360.796600,305.705536 
z"/>
<path fill="#000000" opacity="1.000000" stroke="none" 
	d="
M547.153137,561.014160 
	C558.124390,556.634827 569.116699,553.818848 580.562195,554.097046 
	C594.640442,554.439209 607.415100,558.717773 618.511597,567.889099 
	C629.815857,577.232117 636.444763,589.192993 640.035767,603.134949 
	C642.438782,612.464600 644.741333,612.921692 652.600952,607.000793 
	C675.225281,589.957275 700.527466,590.323730 721.765442,610.275757 
	C734.727051,622.452576 740.521057,637.679932 738.863281,655.149902 
	C736.589539,679.110352 721.357605,700.443542 694.804871,705.814270 
	C688.603699,707.068420 681.960266,706.727905 675.579163,706.812195 
	C644.251465,707.225952 612.910217,707.333618 581.584229,706.859497 
	C565.873474,706.621765 550.129639,705.316772 536.418579,695.948792 
	C519.177368,684.169067 509.273865,667.731689 504.990723,647.571533 
	C499.586456,622.134338 507.113647,600.140869 522.413574,579.965393 
	C528.918091,571.388123 537.441528,565.794800 547.153137,561.014160 
z"/>
<path fill="#000000" opacity="1.000000" stroke="none" 
	d="
M329.997131,679.965942 
	C335.021820,689.781555 341.975616,697.742615 349.076904,705.577332 
	C357.646393,715.031860 351.562866,724.712585 342.456909,727.695923 
	C338.434052,729.013916 334.784027,726.285706 332.167755,723.550537 
	C317.730133,708.456848 305.991089,691.550049 297.920593,672.137695 
	C292.956055,660.196167 289.064575,647.872314 287.316620,635.197205 
	C285.604523,622.782532 284.230316,610.284485 285.694183,597.462952 
	C287.153687,584.679443 288.885315,572.163818 292.890533,559.892273 
	C297.239166,546.568542 302.499573,533.724487 309.768005,521.727173 
	C315.608551,512.086609 322.421783,503.184021 330.384247,495.216553 
	C332.857147,492.742126 335.593964,490.424835 339.425659,489.967163 
	C345.912292,489.192322 349.507263,493.074036 351.925140,498.070190 
	C354.383423,503.149750 353.389435,508.221924 349.832245,512.644165 
	C342.415894,521.864014 334.351654,530.501709 328.377197,540.920776 
	C320.926819,553.913696 315.952057,567.635376 312.976074,582.222229 
	C310.410400,594.797729 310.074890,607.602234 311.232819,620.178223 
	C313.028442,639.679077 318.169861,658.479797 327.967560,675.723511 
	C328.682800,676.982300 329.299927,678.296814 329.997131,679.965942 
z"/>
<path fill="#000000" opacity="1.000000" stroke="none" 
	d="
M383.256348,538.661377 
	C388.746521,546.226135 388.025787,549.663696 381.434998,556.752441 
	C371.792542,567.123535 364.699860,578.642456 362.353455,592.477234 
	C358.695099,614.047302 361.321716,634.486328 375.660187,652.261169 
	C379.294800,656.766846 383.429260,660.989197 385.780182,666.431091 
	C388.489288,672.702271 384.960358,677.106750 379.683136,681.789368 
	C376.226624,684.856323 371.829468,684.706238 367.224762,681.749451 
	C358.990723,676.462036 353.755005,668.426575 349.218628,660.268494 
	C341.235413,645.911865 336.928864,630.400024 335.838593,613.768494 
	C334.159149,588.149597 342.652893,566.050781 356.943970,545.566650 
	C359.758392,541.532532 362.795471,537.911865 367.563293,535.801453 
	C374.406433,532.772461 377.374573,533.019592 383.256348,538.661377 
z"/>
<path fill="#000000" opacity="1.000000" stroke="none" 
	d="
M453.778412,517.282288 
	C464.675049,530.368286 463.023315,543.761963 451.698944,553.659973 
	C439.942230,563.935974 426.008240,561.852295 414.589478,550.050110 
	C406.412140,541.598328 407.839874,523.706116 419.312134,514.153076 
	C429.164795,505.948700 440.537567,505.335205 453.778412,517.282288 
z"/>
<path fill="#000000" opacity="1.000000" stroke="none" 
	d="
M451.738281,696.759644 
	C449.150421,701.899597 444.530334,704.072510 439.889648,704.826477 
	C426.579285,706.988953 413.261749,700.131775 409.695465,687.297180 
	C406.971405,677.493530 410.399139,666.453125 419.556244,659.027283 
	C426.061157,653.752258 436.321594,651.952820 444.426025,656.767944 
	C451.645752,661.057373 457.261536,667.379883 458.455383,674.912903 
	C459.603973,682.160400 457.508331,690.297607 451.738281,696.759644 
z"/>
</svg>